<?xml version="1.0" encoding="utf-8"?>
<!-- Generator: Adobe Illustrator 25.3.1, SVG Export Plug-In . SVG Version: 6.00 Build 0)  -->
<svg version="1.1" id="Camada_1" xmlns="http://www.w3.org/2000/svg" xmlns:xlink="http://www.w3.org/1999/xlink" x="0px" y="0px"
	 viewBox="0 0 574.1 85.1" style="enable-background:new 0 0 574.1 85.1;" xml:space="preserve">
<style type="text/css">
	.st0{fill:#004A70;}
</style>
<g id="Camada_1_1_">
	<g>
		<polygon class="st0" points="272,16.5 308.9,16.5 312.3,0 252,0 233.9,85.1 257.4,85.1 264.3,52.7 298.5,52.7 302.1,36.3 
			267.8,36.3 		"/>
		<polygon class="st0" points="315.5,85.1 339.8,85.1 357.8,0 333.6,0 		"/>
		<polygon class="st0" points="439.6,16.3 443.1,0 379.1,0 361,85.1 426,85.1 429.5,68.5 387.9,68.5 391.8,50.4 430,50.4 
			433.5,34.1 395.3,34.1 399,16.3 		"/>
		<path class="st0" d="M524.7,4.4C518.7,0,510.1,0,503.5,0h-39.1l-18.1,85H470l6.5-30.6l15.3-0.1c4.6,0,14.8,0,22.2-3.6
			c3.6-1.8,14.6-8.2,17.7-23.2C534.2,16.4,531,8.7,524.7,4.4 M507.9,26.8c-2.4,11.4-11.7,11.4-17.5,11.4h-10.5l4.7-22.4H495
			C501.9,15.8,510.1,16.4,507.9,26.8"/>
		<g>
			<rect x="191.4" y="81.7" class="st0" width="21.3" height="3.4"/>
			<rect x="191.4" y="0" class="st0" width="21.3" height="3.4"/>
			<rect x="191.4" y="20.4" class="st0" width="21.3" height="3.4"/>
			<rect x="191.4" y="40.9" class="st0" width="21.3" height="3.4"/>
			<rect x="191.4" y="61.3" class="st0" width="21.3" height="3.4"/>
			<g>
				<path class="st0" d="M1.6,25.7c1.9,1,5.1,2,8.2,2c3.4,0,5.2-1.4,5.2-3.6c0-2-1.6-3.2-5.5-4.6c-5.5-1.9-9.1-5-9.1-9.7
					C0.4,4.2,5.1,0,12.8,0c3.7,0,6.4,0.7,8.4,1.7l-1.7,5.9C18.2,7,15.8,6,12.7,6C9.5,6,7.9,7.5,7.9,9.2c0,2.1,1.8,3,6.1,4.6
					c5.8,2.1,8.5,5.2,8.5,9.8c0,5.5-4.2,10.2-13.2,10.2c-3.7,0-7.4-1-9.3-2L1.6,25.7z"/>
				<path class="st0" d="M31.5,7.4c-2.3,0-3.8-1.7-3.8-3.7c0-2.1,1.6-3.7,3.9-3.7c2.4,0,3.8,1.6,3.9,3.7C35.5,5.8,34,7.4,31.5,7.4
					L31.5,7.4z"/>
				<rect x="27.8" y="9.5" class="st0" width="7.4" height="23.8"/>
				<path class="st0" d="M41.6,26.9c1.4,0.8,4.2,1.8,6.4,1.8c2.2,0,3.2-0.7,3.2-1.9c0-1.2-0.7-1.8-3.5-2.7c-5-1.7-6.9-4.3-6.8-7.1
					c0-4.5,3.8-7.8,9.7-7.8c2.8,0,5.2,0.7,6.7,1.4L56,15.7c-1.1-0.5-3.2-1.3-5.2-1.3c-1.8,0-2.8,0.7-2.8,1.9c0,1.1,0.9,1.8,3.8,2.7
					c4.5,1.6,6.4,3.8,6.4,7.3c0,4.5-3.5,7.7-10.3,7.7c-3.1,0-5.9-0.7-7.7-1.7L41.6,26.9z"/>
				<path class="st0" d="M71.6,3.1v6.5h5.3v5.5h-5.3v8.5c0,2.9,0.7,4.2,2.9,4.2c1,0,1.5,0,2.2-0.2v5.6c-0.9,0.3-2.7,0.6-4.8,0.6
					c-2.4,0-4.4-0.8-5.6-2c-1.4-1.4-2-3.7-2-7.1V15h-3.2V9.5h3.2V5L71.6,3.1z"/>
				<path class="st0" d="M87.1,23.8c0.2,3.1,3.3,4.5,6.7,4.5c2.5,0,4.6-0.3,6.6-1l1,5c-2.4,1-5.4,1.5-8.6,1.5
					c-8.1,0-12.7-4.7-12.7-12.1c0-6,3.8-12.7,12-12.7c7.7,0,10.6,6,10.6,11.9c0,1.3-0.1,2.4-0.2,2.9H87.1z M95.8,18.7
					c0-1.8-0.8-4.8-4.1-4.8c-3.2,0-4.4,2.9-4.6,4.8H95.8z"/>
				<path class="st0" d="M107.6,17.1c0-3-0.1-5.5-0.2-7.6h6.3l0.3,3.3h0.1c1-1.6,3.2-3.8,7.2-3.8c3.1,0,5.5,1.6,6.5,4.1h0.1
					c0.9-1.3,1.9-2.2,3.1-2.9c1.3-0.7,2.8-1.2,4.5-1.2c4.6,0,8,3.2,8,10.3v14h-7.1V20.4c0-3.5-1.1-5.5-3.5-5.5
					c-1.8,0-2.9,1.2-3.5,2.6c-0.1,0.5-0.2,1.3-0.2,1.8v13.9H122V20c0-3-1.1-5-3.5-5c-1.9,0-3,1.5-3.5,2.6c-0.2,0.6-0.3,1.3-0.3,1.9
					v13.8h-7.2V17.1H107.6z"/>
				<path class="st0" d="M169.7,27.6c0,2.2,0.1,4.4,0.4,5.7h-6.7l-0.4-2.4h-0.1c-1.6,1.9-4,2.9-6.8,2.9c-4.8,0-7.7-3.5-7.7-7.3
					c0-6.2,5.5-9.1,14-9.1v-0.3c0-1.3-0.7-3.1-4.3-3.1c-2.4,0-5,0.8-6.6,1.8l-1.4-4.7c1.7-0.9,4.9-2.1,9.2-2.1
					c7.9,0,10.4,4.7,10.4,10.3L169.7,27.6L169.7,27.6z M162.6,22.1c-3.9,0-6.9,0.9-6.9,3.7c0,1.9,1.3,2.8,2.9,2.8
					c1.8,0,3.4-1.2,3.8-2.7c0.1-0.4,0.1-0.8,0.1-1.3v-2.5H162.6z"/>
				<g>
					<path class="st0" d="M83,42.6h20v6.1H90.4v7.5h11.8v6H90.4v13.2H83V42.6z"/>
					<path class="st0" d="M125.9,65.9c0.2,3.1,3.3,4.5,6.7,4.5c2.5,0,4.6-0.3,6.6-1l1,5c-2.4,1-5.4,1.5-8.6,1.5
						c-8.1,0-12.7-4.7-12.7-12.1c0-6,3.8-12.7,12-12.7c7.7,0,10.6,6,10.6,11.9c0,1.3-0.1,2.4-0.2,2.9
						C141.3,65.9,125.9,65.9,125.9,65.9z M134.6,60.8c0-1.8-0.8-4.8-4.1-4.8c-3.2,0-4.4,2.9-4.6,4.8H134.6z"/>
					<path class="st0" d="M145.6,59.6c0-3.1-0.1-5.7-0.2-8h6.4l0.3,3.3h0.1c1.8-2.5,4.5-3.8,7.9-3.8c5.2,0,9.9,4.5,9.9,12.1
						c0,8.7-5.5,12.8-10.8,12.8c-2.9,0-5.1-1.2-6.2-2.7h-0.1v11.8h-7.4L145.6,59.6L145.6,59.6z M153,65.2c0,0.6,0,1.1,0.1,1.6
						c0.5,2,2.2,3.5,4.3,3.5c3.2,0,5.1-2.7,5.1-6.7c0-3.8-1.7-6.7-5-6.7c-2.1,0-3.9,1.6-4.4,3.7c-0.1,0.4-0.1,0.9-0.1,1.3L153,65.2
						L153,65.2z"/>
					<path class="st0" d="M110.7,49.5c-2.3,0-3.8-1.7-3.8-3.7c0-2.1,1.6-3.7,3.9-3.7c2.4,0,3.8,1.6,3.9,3.7
						C114.7,47.9,113.2,49.5,110.7,49.5L110.7,49.5z"/>
					<rect x="107.1" y="51.6" class="st0" width="7.4" height="23.8"/>
				</g>
			</g>
		</g>
		<g>
			<rect x="552.8" y="81.7" class="st0" width="21.3" height="3.4"/>
			<rect x="552.8" y="0" class="st0" width="21.3" height="3.4"/>
			<rect x="552.8" y="20.4" class="st0" width="21.3" height="3.4"/>
			<rect x="552.8" y="40.9" class="st0" width="21.3" height="3.4"/>
			<rect x="552.8" y="61.3" class="st0" width="21.3" height="3.4"/>
		</g>
	</g>
</g>
</svg>
