<?xml version="1.0" encoding="utf-8"?>
<!-- Generator: Adobe Illustrator 25.3.1, SVG Export Plug-In . SVG Version: 6.00 Build 0)  -->
<svg version="1.1" id="Camada_1" xmlns="http://www.w3.org/2000/svg" xmlns:xlink="http://www.w3.org/1999/xlink" x="0px" y="0px"
	 viewBox="0 0 680.4 88.6" style="enable-background:new 0 0 680.4 88.6;" xml:space="preserve">
<style type="text/css">
	.st0{fill:#004A70;}
</style>
<g id="Camada_1_1_">
	<g>
		<g>
			<rect x="191.3" y="83.4" class="st0" width="21.3" height="3.4"/>
			<rect x="191.3" y="1.7" class="st0" width="21.3" height="3.4"/>
			<rect x="191.3" y="22.1" class="st0" width="21.3" height="3.4"/>
			<rect x="191.3" y="42.6" class="st0" width="21.3" height="3.4"/>
			<rect x="191.3" y="63" class="st0" width="21.3" height="3.4"/>
			<g>
				<path class="st0" d="M1.5,27.4c1.9,1,5.1,2,8.2,2c3.4,0,5.2-1.4,5.2-3.6c0-2-1.6-3.2-5.5-4.6c-5.5-1.9-9.1-5-9.1-9.7
					c0-5.6,4.7-9.8,12.4-9.8c3.7,0,6.4,0.7,8.4,1.7l-1.6,5.9c-1.3-0.6-3.7-1.6-6.8-1.6c-3.2,0-4.8,1.5-4.8,3.2c0,2.1,1.8,3,6.1,4.6
					c5.8,2.1,8.5,5.2,8.5,9.8c0,5.5-4.2,10.2-13.2,10.2c-3.7,0-7.4-1-9.3-2L1.5,27.4z"/>
				<path class="st0" d="M31.4,9.1c-2.3,0-3.8-1.7-3.8-3.7c0-2.1,1.6-3.7,3.9-3.7c2.4,0,3.8,1.6,3.9,3.7C35.4,7.5,33.9,9.1,31.4,9.1
					L31.4,9.1z"/>
				<rect x="27.8" y="11.2" class="st0" width="7.4" height="23.8"/>
				<path class="st0" d="M41.6,28.6c1.4,0.8,4.2,1.8,6.4,1.8c2.2,0,3.2-0.7,3.2-1.9c0-1.2-0.7-1.8-3.5-2.7c-5-1.7-6.9-4.3-6.8-7.1
					c0-4.5,3.8-7.8,9.7-7.8c2.8,0,5.2,0.7,6.7,1.4L56,17.4c-1.1-0.5-3.2-1.3-5.2-1.3C49,16.1,48,16.8,48,18c0,1.1,0.9,1.8,3.8,2.7
					c4.5,1.6,6.4,3.8,6.4,7.3c0,4.5-3.5,7.7-10.3,7.7c-3.1,0-5.9-0.7-7.7-1.7L41.6,28.6z"/>
				<path class="st0" d="M71.5,4.8v6.5h5.3v5.5h-5.3v8.5c0,2.9,0.7,4.2,2.9,4.2c1,0,1.5,0,2.2-0.2v5.6c-0.9,0.3-2.7,0.6-4.8,0.6
					c-2.4,0-4.4-0.8-5.6-2c-1.4-1.4-2-3.7-2-7.1v-9.7H61v-5.5h3.2V6.7L71.5,4.8z"/>
				<path class="st0" d="M87,25.5c0.2,3.1,3.3,4.5,6.7,4.5c2.5,0,4.6-0.3,6.6-1l1,5c-2.4,1-5.4,1.5-8.6,1.5
					c-8.1,0-12.7-4.7-12.7-12.1c0-6,3.8-12.7,12-12.7c7.7,0,10.6,6,10.6,11.9c0,1.3-0.1,2.4-0.2,2.9H87z M95.8,20.4
					c0-1.8-0.8-4.8-4.1-4.8c-3.2,0-4.4,2.9-4.6,4.8H95.8z"/>
				<path class="st0" d="M107.5,18.8c0-3-0.1-5.5-0.2-7.6h6.3l0.3,3.3h0.1c1-1.6,3.2-3.8,7.2-3.8c3.1,0,5.5,1.6,6.5,4.1h0.1
					c0.9-1.3,1.9-2.2,3.1-2.9c1.3-0.7,2.8-1.2,4.5-1.2c4.6,0,8,3.2,8,10.3v14h-7.2V22.1c0-3.5-1.1-5.5-3.5-5.5
					c-1.8,0-2.9,1.2-3.5,2.6c-0.1,0.5-0.2,1.3-0.2,1.8v13.9h-7.2V21.7c0-3-1.1-5-3.5-5c-1.9,0-3,1.5-3.5,2.6
					c-0.2,0.6-0.3,1.3-0.3,1.9V35h-7V18.8z"/>
				<path class="st0" d="M169.7,29.3c0,2.2,0.1,4.4,0.4,5.7h-6.7l-0.4-2.4h-0.1c-1.6,1.9-4,2.9-6.8,2.9c-4.8,0-7.7-3.5-7.7-7.3
					c0-6.2,5.5-9.1,14-9.1v-0.3c0-1.3-0.7-3.1-4.3-3.1c-2.4,0-5,0.8-6.6,1.8l-1.4-4.7c1.7-0.9,4.9-2.1,9.2-2.1
					c7.9,0,10.4,4.7,10.4,10.3L169.7,29.3L169.7,29.3z M162.5,23.8c-3.9,0-6.9,0.9-6.9,3.7c0,1.9,1.3,2.8,2.9,2.8
					c1.8,0,3.4-1.2,3.8-2.7c0.1-0.4,0.1-0.8,0.1-1.3v-2.5H162.5z"/>
				<g>
					<path class="st0" d="M82.9,44.3h20v6.1H90.3v7.5h11.8v6H90.3v13.2h-7.4V44.3z"/>
					<path class="st0" d="M125.8,67.6c0.2,3.1,3.3,4.5,6.7,4.5c2.5,0,4.6-0.3,6.6-1l1,5c-2.4,1-5.4,1.5-8.6,1.5
						c-8.1,0-12.7-4.7-12.7-12.1c0-6,3.8-12.7,12-12.7c7.7,0,10.6,6,10.6,11.9c0,1.3-0.1,2.4-0.2,2.9
						C141.2,67.6,125.8,67.6,125.8,67.6z M134.5,62.5c0-1.8-0.8-4.8-4.1-4.8c-3.2,0-4.4,2.9-4.6,4.8H134.5z"/>
					<path class="st0" d="M145.6,61.3c0-3.1-0.1-5.7-0.2-8h6.4l0.3,3.3h0.1c1.8-2.5,4.5-3.8,7.9-3.8c5.2,0,9.9,4.5,9.9,12.1
						c0,8.7-5.5,12.8-10.8,12.8c-2.9,0-5.1-1.2-6.2-2.7h-0.1v11.8h-7.4L145.6,61.3L145.6,61.3z M153,66.9c0,0.6,0,1.1,0.1,1.6
						c0.5,2,2.2,3.5,4.3,3.5c3.2,0,5.1-2.7,5.1-6.7c0-3.8-1.7-6.7-5-6.7c-2.1,0-3.9,1.6-4.4,3.7c-0.1,0.4-0.1,0.9-0.1,1.3L153,66.9
						L153,66.9z"/>
					<path class="st0" d="M110.7,51.2c-2.3,0-3.8-1.7-3.8-3.7c0-2.1,1.6-3.7,3.9-3.7c2.4,0,3.8,1.6,3.9,3.7
						C114.7,49.6,113.2,51.2,110.7,51.2L110.7,51.2z"/>
					<rect x="107" y="53.3" class="st0" width="7.4" height="23.8"/>
				</g>
			</g>
		</g>
		<g>
			<rect x="659.1" y="83.4" class="st0" width="21.3" height="3.4"/>
			<rect x="659.1" y="1.7" class="st0" width="21.3" height="3.4"/>
			<rect x="659.1" y="22.1" class="st0" width="21.3" height="3.4"/>
			<rect x="659.1" y="42.6" class="st0" width="21.3" height="3.4"/>
			<rect x="659.1" y="63" class="st0" width="21.3" height="3.4"/>
		</g>
		<polygon class="st0" points="619.7,86.8 637.8,1.7 614.2,1.7 596.2,86.8 		"/>
		<path class="st0" d="M572.1,1.7h-28.7l-51.7,85h23.6l9.1-16.6h34.5l2.1,16.6h26.6L572.1,1.7z M533.8,53.7l19.1-35.4h0.4l3.3,35.3
			L533.8,53.7L533.8,53.7z"/>
		<polygon class="st0" points="400.3,86.8 421.5,86.8 435.3,21.6 435.6,21.6 450.6,86.8 483.2,86.8 501.3,1.7 480.1,1.7 466.7,64.9 
			466.4,65.1 451.4,1.7 418.4,1.7 		"/>
		<polygon class="st0" points="382.8,86.8 386.3,70.3 345.1,70.3 348.9,52.3 386.9,52.3 390.4,35.8 352.4,35.8 356.2,18.2 
			397.4,18.2 400.9,1.7 336.1,1.7 318.1,86.8 		"/>
		<path class="st0" d="M312.9,26.7C318.7,6.2,302,0,284.4,0c-17.8,0-36.6,5.5-41.8,25.7c-2,9.2,0.6,17,8.4,20.7
			c16.8,8.1,34.7,5.7,32.3,17.2c-1.2,5.6-8.7,8.5-14.2,8.5c-8.5,0-13.4-4.4-11.6-12.4H234c-4.6,23.1,11.7,28.9,31.4,28.9
			s39.1-8.5,43-26.4c4.9-23-15.6-24.4-29-28c-5.9-1.6-13-3.7-11.7-9.9c0.9-4.2,6.4-7.8,11.8-7.8c4,0,6.9,0.9,8.5,2.7
			c1.8,1.8,2.3,4.2,1.5,7.5H312.9z"/>
	</g>
</g>
</svg>
